# 3ds Max Wavefront OBJ Exporter v0.97b - (c)2007 guruware
# File Created: 06.12.2014 10:23:07

mtllib 2dbox.mtl

#
# object Box01
#
o 2DBox
v  -78.2906 -60.3419 -0.0000
v  -78.2906 59.6581 0.0000
v  81.7094 59.6581 0.0000
v  81.7094 -60.3419 -0.0000
v  -78.2906 -60.3419 1.0000
v  81.7094 -60.3419 1.0000
v  81.7094 59.6581 1.0000
v  -78.2906 59.6581 1.0000
# 8 vertices

vn 0.0000 0.0000 -1.0000
vn 0.0000 -0.0000 1.0000
vn 0.0000 -1.0000 -0.0000
vn 1.0000 0.0000 -0.0000
vn 0.0000 1.0000 0.0000
vn -1.0000 0.0000 -0.0000
# 6 vertex normals

vt 0.0005 0.0005 0.5000
vt 0.0005 0.9995 0.5000
vt 0.9995 0.9995 0.5000
vt 0.9995 0.0005 0.5000
vt 0.0005 0.0005 1.5000
vt 0.9995 0.0005 1.5000
vt 0.9995 0.9995 1.5000
vt 0.0005 0.9995 1.5000
# 8 texture coords

g Box01
usemtl 01___Default
s 2
f 1/1/1 2/2/1 3/3/1 
f 3/3/1 4/4/1 1/1/1 
s 4
f 5/5/2 6/6/2 7/7/2 
f 7/7/2 8/8/2 5/5/2 
s 8
f 1/1/3 4/4/3 6/6/3 
f 6/6/3 5/5/3 1/1/3 
s 16
f 4/4/4 3/3/4 7/7/4 
f 7/7/4 6/6/4 4/4/4 
s 32
f 3/3/5 2/2/5 8/8/5 
f 8/8/5 7/7/5 3/3/5 
s 64
f 2/2/6 1/1/6 5/5/6 
f 5/5/6 8/8/6 2/2/6 
# 12 faces

